# xmcd
#
# Track frame offsets: 
#        150
#        35290
#        65730
#        88595
#        114975
#        137960
#
# Disc length: 2185 seconds
#
# Revision: 2
# Processed by: cddbd v1.5.2PL0 Copyright (c) Steve Scherf et al.
# Submitted via: ExactAudioCopy v0.95b4
#
DISCID=4e088706
DTITLE=Phil Woods And Donald Byrd - The Young Bloods
DYEAR=1956
DGENRE=Jazz
TTITLE0=Dewey Square
TTITLE1=Dupeltook
TTITLE2=Once More
TTITLE3=House Of Chan
TTITLE4=In Walked George
TTITLE5=Lover Man
EXTD=YEAR: 1956
EXTT0=
EXTT1=
EXTT2=
EXTT3=
EXTT4=
EXTT5=
PLAYORDER=
